<?xml version="1.0" encoding="UTF-8"?>
<svg width="54px" height="43px" viewBox="0 0 54 43" version="1.1" xmlns="http://www.w3.org/2000/svg" xmlns:xlink="http://www.w3.org/1999/xlink">
    <!-- Generator: Sketch 42 (36781) - http://www.bohemiancoding.com/sketch -->
    <title>Group 3</title>
    <desc>Created with Sketch.</desc>
    <defs></defs>
    <g id="Nicer-Design" stroke="none" stroke-width="1" fill="none" fill-rule="evenodd">
        <g id="Desktop-Copy-2" transform="translate(-433.000000, -769.000000)">
            <g id="Group-11" transform="translate(117.000000, 754.000000)">
                <g id="Group-3" transform="translate(316.000000, 15.000000)">
                    <polyline id="Fill-414" fill="#B4B5B4" points="30.9201429 0 30.9201429 1.21776471 32.1094286 1.21776471 32.1094286 17.5068235 33.0981429 19.6731765 34.0817143 17.5068235 34.0817143 1.21776471 35.2684286 1.21776471 35.2684286 0 30.9201429 0"></polyline>
                    <polyline id="Fill-415" fill="#AFB0AE" points="33.0981429 19.6731765 33.0942857 19.6692941 33.0942857 19.6654118 33.0981429 19.6731765 34.0817143 17.5068235 34.0817143 1.21776471 35.2684286 1.21776471 35.2684286 0 35.2684286 1.21776471 34.0817143 1.21776471 34.0817143 17.5068235 33.0981429 19.6731765"></polyline>
                    <polyline id="Fill-416" fill="#898A88" points="33.0981429 19.6731765 33.0942857 19.6654118 33.0942857 0 35.2684286 0 35.2684286 1.21776471 34.0817143 1.21776471 34.0817143 17.5068235 33.0981429 19.6731765"></polyline>
                    <polyline id="Fill-417" fill="#B4B5B4" points="23.1891429 0 23.1891429 1.21776471 24.3784286 1.21776471 24.3784286 17.5068235 25.3671429 19.6731765 26.352 17.5068235 26.352 1.21776471 27.54 1.21776471 27.54 0 23.1891429 0"></polyline>
                    <polyline id="Fill-418" fill="#AFB0AE" points="25.3671429 19.6731765 25.3645714 19.6692941 25.3645714 19.668 25.3671429 19.6731765 26.352 17.5068235 26.352 1.21776471 27.54 1.21776471 27.54 0 27.54 1.21776471 26.352 1.21776471 26.352 17.5068235 25.3671429 19.6731765"></polyline>
                    <polyline id="Fill-419" fill="#898A88" points="25.3671429 19.6731765 25.3645714 19.668 25.3645714 0 27.54 0 27.54 1.21776471 26.352 1.21776471 26.352 17.5068235 25.3671429 19.6731765"></polyline>
                    <polyline id="Fill-420" fill="#B4B5B4" points="15.4594286 0 15.4594286 1.21776471 16.65 1.21776471 16.65 17.5068235 17.6374286 19.6731765 18.6222857 17.5068235 18.6222857 1.21776471 19.809 1.21776471 19.809 0 15.4594286 0"></polyline>
                    <polyline id="Fill-421" fill="#AFB0AE" points="17.6374286 19.6731765 17.6348571 19.6692941 17.6348571 19.668 17.6374286 19.6731765 18.6222857 17.5068235 18.6222857 1.21776471 19.809 1.21776471 19.809 0 19.809 1.21776471 18.6222857 1.21776471 18.6222857 17.5068235 17.6374286 19.6731765"></polyline>
                    <polyline id="Fill-422" fill="#898A88" points="17.6374286 19.6731765 17.6348571 19.668 17.6348571 0 19.809 0 19.809 1.21776471 18.6222857 1.21776471 18.6222857 17.5068235 17.6374286 19.6731765"></polyline>
                    <polyline id="Fill-423" fill="#B4B5B4" points="7.731 0 7.731 1.21776471 8.92028571 1.21776471 8.92028571 17.5068235 9.90642857 19.6731765 10.8938571 17.5068235 10.8938571 1.21776471 12.0818571 1.21776471 12.0818571 0 7.731 0"></polyline>
                    <polyline id="Fill-424" fill="#898A88" points="9.90642857 19.6731765 9.90642857 19.6731765 9.90514286 19.6692941 9.90514286 0 12.0818571 0 12.0818571 1.21776471 10.8938571 1.21776471 10.8938571 17.5068235 9.90642857 19.6731765"></polyline>
                    <polyline id="Fill-425" fill="#B4B5B4" points="0 0 0 1.21776471 1.18928571 1.21776471 1.18928571 17.5068235 2.178 19.6731765 3.16285714 17.5068235 3.16285714 1.21776471 4.35085714 1.21776471 4.35085714 0 0 0"></polyline>
                    <polyline id="Fill-426" fill="#AFB0AE" points="2.178 19.6731765 2.17542857 19.6692941 2.17542857 19.668 2.178 19.6731765 3.16285714 17.5068235 3.16285714 1.21776471 4.35085714 1.21776471 4.35085714 0 4.35085714 1.21776471 3.16285714 1.21776471 3.16285714 17.5068235 2.178 19.6731765"></polyline>
                    <polyline id="Fill-427" fill="#898A88" points="2.178 19.6731765 2.17542857 19.668 2.17542857 0 4.35085714 0 4.35085714 1.21776471 3.16285714 1.21776471 3.16285714 17.5068235 2.178 19.6731765"></polyline>
                    <polyline id="Fill-428" fill="#B4B5B4" points="31.3187143 23.8842353 31.4987143 25.0890588 32.6725714 24.9104706 35.0922857 41.0170588 36.3908571 43.01 37.0465714 40.7194118 34.6268571 24.6128235 35.7994286 24.4342353 35.6181429 23.2307059 31.3187143 23.8842353"></polyline>
                    <polyline id="Fill-429" fill="#898A88" points="36.3908571 43.01 36.3908571 43.01 36.3895714 43.0061176 33.4684286 23.5581176 35.6181429 23.2307059 35.7994286 24.4342353 34.6268571 24.6128235 37.0465714 40.7194118 36.3908571 43.01"></polyline>
                    <polyline id="Fill-430" fill="#B4B5B4" points="41.9348571 4.22270588 41.5671429 5.38094118 42.6998571 5.74588235 37.7678571 21.2610588 38.0545714 23.6267059 39.6501429 21.8667059 44.5795714 6.35152941 45.7122857 6.71517647 46.08 5.55564706 41.9348571 4.22270588"></polyline>
                    <path d="M38.0545714,23.6267059 L38.052,23.6228235 L38.0532857,23.6176471 L38.0545714,23.6267059 L39.6501429,21.8667059 L44.5795714,6.35152941 L45.7122857,6.71517647 L46.08,5.55564706 L45.7122857,6.71517647 L44.5795714,6.35152941 L39.6501429,21.8667059 L38.0545714,23.6267059 M46.08,5.55564706 L44.0074286,4.88917647 L44.0074286,4.88788235 L46.08,5.55564706" id="Fill-431" fill="#AFB0AE"></path>
                    <polyline id="Fill-432" fill="#898A88" points="38.0545714 23.6267059 38.0532857 23.6176471 44.0074286 4.88917647 46.08 5.55564706 45.7122857 6.71517647 44.5795714 6.35152941 39.6501429 21.8667059 38.0545714 23.6267059"></polyline>
                    <polyline id="Fill-433" fill="#B4B5B4" points="50.0297143 16.9283529 49.2274286 17.842 50.1197143 18.634 39.402 30.8375294 38.7167143 33.1203529 40.8805714 32.1549412 51.5982857 19.9488235 52.4905714 20.7408235 53.289 19.8284706 50.0297143 16.9283529"></polyline>
                    <path d="M38.7167143,33.1203529 L38.7167143,33.1151765 L38.718,33.1125882 L38.7167143,33.1203529 M53.289,19.8284706 L51.6587143,18.3790588 L51.66,18.3777647 L53.289,19.8284706" id="Fill-434" fill="#AFB0AE"></path>
                    <polyline id="Fill-435" fill="#898A88" points="38.7167143 33.1203529 38.7167143 33.1203529 38.718 33.1125882 51.6587143 18.3790588 53.289 19.8284706 52.4905714 20.7408235 51.5982857 19.9488235 40.8805714 32.1549412 38.7167143 33.1203529"></polyline>
                </g>
            </g>
        </g>
    </g>
</svg>