<svg width="54" height="43" viewBox="0 0 54 43" xmlns="http://www.w3.org/2000/svg"><title>Group 3</title><g fill="none" fill-rule="evenodd"><path fill="#B4B5B4" d="M30.92 0v1.218h1.19v16.289l.988 2.166.984-2.166V1.217h1.186V0H30.92"/><path fill="#AFB0AE" d="M33.098 19.673l-.004-.004v-.004l.004.008.984-2.166V1.217h1.186V0v1.218h-1.186v16.289l-.984 2.166"/><path fill="#898A88" d="M33.098 19.673l-.004-.008V0h2.174v1.218h-1.186v16.289l-.984 2.166"/><path fill="#B4B5B4" d="M23.19 0v1.218h1.188v16.289l.99 2.166.984-2.166V1.217h1.188V0h-4.35"/><path fill="#AFB0AE" d="M25.367 19.673l-.002-.004v-.001l.002.005.985-2.166V1.217h1.188V0v1.218h-1.188v16.289l-.985 2.166"/><path fill="#898A88" d="M25.367 19.673l-.002-.005V0h2.175v1.218h-1.188v16.289l-.985 2.166"/><path fill="#B4B5B4" d="M15.46 0v1.218h1.19v16.289l.987 2.166.985-2.166V1.217h1.187V0h-4.35"/><path fill="#AFB0AE" d="M17.637 19.673l-.002-.004v-.001l.002.005.985-2.166V1.217h1.187V0v1.218h-1.187v16.289l-.985 2.166"/><path fill="#898A88" d="M17.637 19.673l-.002-.005V0h2.174v1.218h-1.187v16.289l-.985 2.166"/><path fill="#B4B5B4" d="M7.731 0v1.218h1.19v16.289l.985 2.166.988-2.166V1.217h1.188V0H7.73"/><path fill="#898A88" d="M9.906 19.673V0h2.176v1.218h-1.188v16.289l-.988 2.166"/><path fill="#B4B5B4" d="M0 0v1.218h1.19v16.289l.988 2.166.985-2.166V1.217H4.35V0H0"/><path fill="#AFB0AE" d="M2.178 19.673l-.003-.004v-.001l.003.005.985-2.166V1.217H4.35V0v1.218H3.163v16.289l-.985 2.166"/><path fill="#898A88" d="M2.178 19.673l-.003-.005V0h2.176v1.218H3.163v16.289l-.985 2.166"/><path fill="#B4B5B4" d="M31.319 23.884l.18 1.205 1.174-.179 2.42 16.107 1.298 1.993.656-2.29-2.42-16.107 1.172-.179-.18-1.203-4.3.653"/><path fill="#898A88" d="M36.39 43.01v-.004l-2.922-19.448 2.15-.327.181 1.203-1.172.179 2.42 16.106-.656 2.291"/><path fill="#B4B5B4" d="M41.935 4.223l-.368 1.158 1.133.365-4.932 15.515.287 2.366 1.595-1.76 4.93-15.515 1.132.363.368-1.16-4.145-1.332"/><path d="M38.055 23.627l-.003-.004.001-.005.002.009 1.595-1.76 4.93-15.515 1.132.363.368-1.16-.368 1.16-1.132-.363-4.93 15.515-1.595 1.76M46.08 5.556l-2.073-.667v-.001l2.073.668" fill="#AFB0AE"/><path fill="#898A88" d="M38.055 23.627l-.002-.01L44.007 4.89l2.073.667-.368 1.16-1.132-.364-4.93 15.515-1.595 1.76"/><path fill="#B4B5B4" d="M50.03 16.928l-.803.914.893.792-10.718 12.204-.685 2.282 2.164-.965 10.717-12.206.893.792.798-.913-3.26-2.9"/><path d="M38.717 33.12v-.005l.001-.002-.001.007m14.572-13.292l-1.63-1.449.001-.001 1.629 1.45" fill="#AFB0AE"/><path fill="#898A88" d="M38.717 33.12l.001-.007 12.94-14.734 1.631 1.45-.798.912-.893-.792-10.717 12.206-2.164.965"/></g></svg>